<svg width="1400" height="780" viewBox="0 0 1400 780" fill="none" xmlns="http://www.w3.org/2000/svg">
  <defs>
    <linearGradient id="bg" x1="0" y1="0" x2="1400" y2="780" gradientUnits="userSpaceOnUse">
      <stop stop-color="#0A1A2E"/>
      <stop offset="1" stop-color="#050D1A"/>
    </linearGradient>
    <linearGradient id="bar" x1="0" y1="0" x2="0" y2="1">
      <stop stop-color="#223A5B"/>
      <stop offset="1" stop-color="#192D48"/>
    </linearGradient>
    <linearGradient id="panel" x1="0" y1="0" x2="1" y2="1">
      <stop stop-color="#10253E"/>
      <stop offset="1" stop-color="#0B1A2E"/>
    </linearGradient>
  </defs>
  <rect width="1400" height="780" rx="20" fill="url(#bg)"/>
  <rect x="55" y="55" width="1290" height="670" rx="14" fill="#0B1628" stroke="#1A3A5E" stroke-width="2"/>
  <rect x="55" y="55" width="1290" height="52" rx="14" fill="url(#bar)"/>
  <circle cx="88" cy="81" r="7" fill="#EF6A5D"/>
  <circle cx="109" cy="81" r="7" fill="#F5BF4F"/>
  <circle cx="130" cy="81" r="7" fill="#63CA74"/>
  <text x="160" y="88" fill="#A8CCE8" font-size="18" font-family="Segoe UI, Arial, sans-serif" font-weight="700">Fishbattery Launcher</text>

  <rect x="88" y="132" width="95" height="560" rx="12" fill="#0E2037" stroke="#234A72"/>
  <rect x="106" y="166" width="58" height="58" rx="12" fill="#1B3858"/>
  <rect x="106" y="244" width="58" height="58" rx="12" fill="#142C48"/>
  <rect x="106" y="322" width="58" height="58" rx="12" fill="#142C48"/>

  <rect x="213" y="132" width="846" height="110" rx="12" fill="url(#panel)" stroke="#20466F"/>
  <text x="240" y="183" fill="#E5F2FF" font-size="34" font-family="Segoe UI, Arial, sans-serif" font-weight="700">Welcome back</text>
  <text x="240" y="215" fill="#8FB6D8" font-size="20" font-family="Segoe UI, Arial, sans-serif">Your instances are ready to launch.</text>

  <rect x="213" y="263" width="846" height="428" rx="12" fill="#0D1D34" stroke="#1E4368"/>
  <rect x="238" y="289" width="560" height="164" rx="10" fill="#112846"/>
  <rect x="238" y="472" width="560" height="193" rx="10" fill="#10233C"/>
  <rect x="818" y="289" width="216" height="376" rx="10" fill="#10243D"/>

  <rect x="258" y="314" width="380" height="18" rx="9" fill="#2F79C4"/>
  <rect x="258" y="345" width="300" height="12" rx="6" fill="#7EA8CF"/>
  <rect x="258" y="366" width="250" height="12" rx="6" fill="#5B86AE"/>

  <rect x="258" y="500" width="230" height="140" rx="10" fill="#19395C"/>
  <rect x="503" y="500" width="270" height="140" rx="10" fill="#153552"/>

  <rect x="842" y="314" width="170" height="18" rx="9" fill="#2C6EAA"/>
  <rect x="842" y="345" width="140" height="12" rx="6" fill="#6A94BB"/>
  <rect x="842" y="530" width="170" height="10" rx="5" fill="#4F7FA7"/>
  <rect x="842" y="549" width="146" height="10" rx="5" fill="#3C6E98"/>
  <rect x="842" y="568" width="158" height="10" rx="5" fill="#3C6E98"/>

  <text x="700" y="742" text-anchor="middle" fill="#89B1D4" font-size="20" font-family="Segoe UI, Arial, sans-serif">Launcher preview</text>
</svg>
